<?xml version="1.0" standalone="no"?>
<!DOCTYPE svg PUBLIC "-//W3C//DTD SVG 20010904//EN"
 "http://www.w3.org/TR/2001/REC-SVG-20010904/DTD/svg10.dtd">
<svg version="1.0" xmlns="http://www.w3.org/2000/svg"
 width="800.000000pt" height="800.000000pt" viewBox="0 0 800.000000 800.000000"
 preserveAspectRatio="xMidYMid meet">
<metadata>
Created by potrace 1.14, written by Peter Selinger 2001-2017
</metadata>
<g transform="translate(0.000000,800.000000) scale(0.100000,-0.100000)"
fill="#000000" stroke="none">
<path d="M5739 7426 c-2 -2 -27 -6 -56 -9 -223 -23 -479 -144 -663 -314 -14
-13 -28 -23 -33 -23 -4 0 -27 18 -51 40 -24 22 -48 40 -53 40 -9 0 -248 -309
-248 -321 0 -4 28 -30 62 -58 61 -51 62 -53 49 -79 -50 -100 -86 -264 -93
-432 l-6 -125 -56 -75 c-31 -41 -66 -86 -78 -100 -29 -31 -29 -36 3 -65 15
-14 24 -30 21 -38 -3 -7 -77 -121 -164 -252 -306 -461 -558 -840 -568 -857 -5
-9 -77 -118 -160 -242 -345 -519 -1185 -1785 -1377 -2077 -115 -173 -214 -323
-222 -334 -68 -95 -236 -358 -236 -368 0 -17 75 -161 112 -215 16 -24 28 -48
25 -55 -3 -7 -51 -71 -108 -142 -57 -72 -119 -150 -138 -174 l-34 -43 31 -28
c18 -15 32 -31 32 -35 0 -4 -44 -62 -97 -128 -54 -67 -104 -129 -111 -139 -11
-15 -3 -22 71 -66 163 -97 358 -180 582 -249 84 -25 217 -57 325 -77 178 -33
174 -33 265 -41 44 -4 89 -9 100 -11 25 -5 419 -5 460 0 17 3 62 7 100 11 39
3 77 8 85 10 8 2 37 6 63 10 130 16 351 71 523 129 172 58 284 106 459 196
247 126 436 249 704 458 457 357 934 555 1341 556 155 1 206 -5 316 -37 189
-54 325 -172 354 -306 26 -124 -11 -223 -130 -341 -104 -105 -243 -185 -432
-250 -46 -16 -82 -30 -82 -32 1 -2 13 -42 28 -89 l26 -86 96 33 c548 191 810
564 640 909 -139 280 -508 427 -961 382 -238 -23 -580 -135 -808 -264 -33 -18
-61 -33 -63 -33 -8 0 -191 -115 -269 -170 -90 -63 -129 -92 -271 -201 -191
-147 -391 -273 -594 -375 -104 -52 -305 -140 -340 -149 -8 -2 -49 -15 -90 -30
-74 -26 -308 -86 -385 -100 -70 -12 -78 -14 -160 -25 -519 -71 -1088 10 -1578
226 l-106 47 19 26 c11 14 32 41 48 60 l28 33 35 -30 35 -30 79 100 c44 55 88
109 97 120 10 12 18 24 18 27 1 3 22 30 48 59 l48 53 39 -17 c69 -29 221 -69
300 -79 22 -3 27 2 224 234 25 30 64 75 86 101 22 25 63 72 90 104 28 33 55
64 60 70 6 6 23 27 39 46 16 19 52 62 81 95 49 56 1151 1343 1254 1464 109
129 124 146 130 151 3 3 28 32 56 65 27 33 54 65 60 71 5 6 30 35 55 64 25 30
52 61 60 70 8 9 32 36 52 60 20 25 49 59 63 75 15 17 45 52 68 79 41 48 162
189 216 251 14 17 51 59 81 95 30 36 57 67 60 70 3 3 30 34 60 70 30 36 57 67
60 70 3 3 30 34 60 70 30 36 57 67 60 70 3 3 43 50 90 105 46 55 87 102 90
105 3 3 25 29 49 57 l43 53 25 -20 c14 -11 31 -20 37 -20 6 0 47 49 91 107
l80 107 65 17 c142 36 312 117 415 197 l50 39 67 -44 c36 -25 71 -42 76 -39 6
3 36 41 68 84 32 42 84 110 116 151 32 40 58 77 58 81 0 4 -22 21 -50 39 -27
18 -52 36 -55 41 -3 4 13 46 34 92 122 262 148 541 75 817 -116 434 -470 763
-919 856 -72 15 -315 31 -326 21z"/>
</g>
</svg>
